<svg xmlns="http://www.w3.org/2000/svg" viewBox="0 0 800 800">
  <path fill="#a4c639" d="M146.7 288.3c0-22.3 18-40.3 40.3-40.3s40.3 18 40.3 40.3v143.5c0 22.3-18 40.3-40.3 40.3s-40.3-18-40.3-40.3V288.3zm466.6 0c0-22.3 18-40.3 40.3-40.3s40.3 18 40.3 40.3v143.5c0 22.3-18 40.3-40.3 40.3s-40.3-18-40.3-40.3V288.3z"/>
  <path fill="#a4c639" d="M254.6 711.2c0 22.3 18 40.3 40.3 40.3s40.3-18 40.3-40.3V567.7h129.6v143.5c0 22.3 18 40.3 40.3 40.3s40.3-18 40.3-40.3V567.7h-290.8v143.5z"/>
  <path fill="#a4c639" d="M254.6 231.4c0-22.3 18-40.3 40.3-40.3h210.2c22.3 0 40.3 18 40.3 40.3v305h-290.8v-305zm273.4-89.7L568.7 72c4.8-8.1 2.1-18.5-6-23.3-8.1-4.8-18.5-2.1-23.3 6l-44.7 75.1c-31.9-14.2-67.4-22.1-105-22.1s-73.1 7.9-105 22.1l-44.7-75.1c-4.8-8.1-15.2-10.8-23.3-6-8.1 4.8-10.8 15.2-6 23.3l40.7 69.7C174 182.8 125 250.4 125 328.5h550c0-78.1-49-145.7-126.4-186.8zM315 254c-11.3 0-20.5-9.2-20.5-20.5s9.2-20.5 20.5-20.5 20.5 9.2 20.5 20.5-9.2 20.5-20.5 20.5zm170 0c-11.3 0-20.5-9.2-20.5-20.5s9.2-20.5 20.5-20.5 20.5 9.2 20.5 20.5-9.2 20.5-20.5 20.5z"/>
</svg>
